<svg version="1.2" xmlns="http://www.w3.org/2000/svg" viewBox="0 0 350 95" width="350" height="95">
	<title>Group 270-svg</title>
	<style>
		.s0 { fill: #144fb9 } 
		.s1 { fill: #1951c2 } 
		.s2 { fill: #0d53c8 } 
		.s3 { fill: #000000 } 
	</style>
	<path id="Layer" fill-rule="evenodd" class="s0" d="m101 46.9c0 5.5-4.5 10-10 10-5.5 0-10-4.5-10-10 0-5.6 4.5-10 10-10 5.5 0 10 4.4 10 10zm-16 0c0 3.3 2.7 6 6 6 3.3 0 6-2.7 6-6 0-3.4-2.7-6-6-6-3.3 0-6 2.6-6 6z"/>
	<path id="Layer" fill-rule="evenodd" class="s1" d="m91.1 26.4c10.2 0 18.6 7.6 19.8 17.5h-4.2c-1.2-7.6-7.8-13.3-15.6-13.3-7.9 0-14.4 5.7-15.6 13.3h-4.3c1.3-9.9 9.7-17.5 19.9-17.5zm-15.4 23.5c1.6 7 7.8 12.3 15.4 12.3 7.5 0 13.8-5.3 15.4-12.3h4.3c-1.7 9.3-9.9 16.5-19.7 16.5-9.9 0-18.1-7.2-19.7-16.5z"/>
	<path id="Layer" fill-rule="evenodd" class="s2" d="m60 46.9c0-16.2 12.3-29.4 28-30.9v4.7c-13.1 1.5-23.3 12.6-23.3 26.2 0 13.5 10.2 24.6 23.3 26.1v4.7c-15.7-1.5-28-14.7-28-30.8zm34 26.1c13.1-1.5 23.3-12.6 23.3-26.1 0-13.6-10.2-24.7-23.3-26.2v-4.7c15.7 1.5 28 14.7 28 30.9 0 16.1-12.3 29.3-28 30.8z"/>
	<path id="Layer" fill-rule="evenodd" class="s3" d="m147.1 57l-7.1-9.3v9.3h-5.1v-21.1h5.1v9.3l7-9.3h6l-8.1 10.4 8.4 10.7zm13.9-14q0.9-1.3 2.2-2.1 1.4-0.8 3-0.8v5.4h-1.4q-1.9 0-2.9 0.9-0.9 0.8-0.9 2.8v7.8h-5.2v-16.7h5.2zm24.8-2.8l-10.5 24.7h-5.5l3.8-8.6-6.8-16.1h5.7l3.9 10.4 3.8-10.4zm7 2.3q0.8-1.1 2.1-1.8 1.3-0.8 3.1-0.8 2 0 3.7 1.1 1.7 1 2.7 3 1 1.9 1 4.5 0 2.6-1 4.6-1 1.9-2.7 3-1.7 1.1-3.7 1.1-1.8 0-3.1-0.8-1.3-0.7-2.1-1.8v10.3h-5.1v-24.7h5.1zm7.3 5.9q0-1.9-1-3-1.1-1.1-2.7-1.1-1.5 0-2.6 1.1-1 1.2-1 3.1 0 1.9 1 3 1.1 1.1 2.6 1.1 1.6 0 2.7-1.1 1-1.1 1-3.1zm17.3 4.1v4.3h-2.6q-2.8 0-4.4-1.3-1.5-1.4-1.5-4.5v-6.6h-2.1v-4.3h2.1v-4.1h5.1v4.1h3.3v4.3h-3.3v6.7q0 0.7 0.3 1.1 0.4 0.3 1.2 0.3zm10.5 4.6q-2.4 0-4.4-1.1-2-1-3.1-3-1.1-1.9-1.1-4.5 0-2.6 1.1-4.6 1.2-1.9 3.1-3 2-1 4.5-1 2.4 0 4.4 1 2 1.1 3.1 3 1.2 2 1.2 4.6 0 2.6-1.2 4.5-1.1 2-3.1 3-2 1.1-4.5 1.1zm0-4.5q1.5 0 2.5-1 1.1-1.1 1.1-3.1 0-2-1.1-3.1-0.9-1.1-2.4-1.1-1.5 0-2.5 1.1-1 1-1 3.1 0 2 1 3.1 1 1 2.4 1zm21.7-12.7q2.9 0 4.7 1.9 1.8 1.9 1.8 5.3v9.7h-5.1v-9q0-1.7-0.9-2.7-0.9-0.9-2.4-0.9-1.4 0-2.3 0.9-0.9 1-0.9 2.7v9h-5.1v-16.7h5.1v2.2q0.8-1.1 2.1-1.7 1.4-0.7 3-0.7zm15.2-4.1v21h-5.2v-21zm11.6 0q3.4 0 5.8 1.3 2.5 1.3 3.9 3.7 1.4 2.4 1.4 5.5 0 3.1-1.4 5.5-1.4 2.4-3.9 3.7-2.5 1.3-5.8 1.3h-7.9v-21zm-0.3 16.6q2.9 0 4.5-1.6 1.7-1.6 1.7-4.5 0-2.9-1.7-4.5-1.6-1.6-4.5-1.6h-2.4v12.2z"/>
</svg>